<svg width="193" height="83" viewBox="0 0 193 83" fill="none" xmlns="http://www.w3.org/2000/svg">
<path d="M0 25C0 19.4772 4.47715 15 10 15H100C105.523 15 110 19.4772 110 25V56C110 62.0751 105.075 67 99 67H10C4.47715 67 0 62.5228 0 57V25Z" fill="#D63031"/>
<path d="M4.18066 51.9775C4.92936 49.1624 5.46842 47.4854 5.79785 46.9463C6.54655 45.8682 7.51237 45.3291 8.69531 45.3291H29.2246C29.8086 45.3291 30.3626 45.2168 30.8867 44.9922C31.4258 44.7676 31.89 44.4681 32.2793 44.0938C32.6836 43.7044 33.0055 43.2477 33.2451 42.7236C33.4997 42.1995 33.6419 41.6305 33.6719 41.0166V38.8604C33.6719 38.3063 33.8366 37.7598 34.166 37.2207C34.9147 36.1426 35.873 35.6035 37.041 35.6035H40.2754V40.9492C40.2754 42.4616 39.9834 43.8841 39.3994 45.2168C38.8304 46.5495 38.0443 47.7174 37.041 48.7207C36.0378 49.724 34.8623 50.5176 33.5146 51.1016C32.182 51.6855 30.752 51.9775 29.2246 51.9775H4.18066ZM20.2402 53.8193C20.7793 53.8193 21.2809 53.9242 21.7451 54.1338C22.2093 54.3434 22.6136 54.6204 22.958 54.9648C23.3174 55.3242 23.5944 55.7435 23.7891 56.2227C23.9987 56.7018 24.1035 57.2109 24.1035 57.75C24.1035 58.2891 23.9987 58.7907 23.7891 59.2549C23.5944 59.734 23.3174 60.1458 22.958 60.4902C22.6136 60.8496 22.2093 61.1266 21.7451 61.3213C21.2809 61.5309 20.7793 61.6357 20.2402 61.6357C19.7012 61.6357 19.1921 61.5309 18.7129 61.3213C18.2487 61.1266 17.8369 60.8496 17.4775 60.4902C17.1331 60.1458 16.8561 59.734 16.6465 59.2549C16.4518 58.7907 16.3545 58.2891 16.3545 57.75C16.3545 57.2109 16.4518 56.7018 16.6465 56.2227C16.8561 55.7435 17.1331 55.3242 17.4775 54.9648C17.8369 54.6204 18.2487 54.3434 18.7129 54.1338C19.1921 53.9242 19.7012 53.8193 20.2402 53.8193ZM41.915 21.7451C41.915 20.6071 42.4541 19.6712 43.5322 18.9375C44.0563 18.623 44.5954 18.4658 45.1494 18.4658H48.5186V41.0615C48.5335 41.6755 48.6608 42.2445 48.9004 42.7686C49.14 43.2926 49.4619 43.7493 49.8662 44.1387C50.2705 44.513 50.7347 44.8125 51.2588 45.0371C51.7979 45.2617 52.3669 45.374 52.9658 45.374H53.1455V52H52.9658C51.4535 52 50.0309 51.7155 48.6982 51.1465C47.3656 50.5625 46.1976 49.7764 45.1943 48.7881C44.1911 47.7998 43.3975 46.6468 42.8135 45.3291C42.2295 43.9964 41.93 42.5739 41.915 41.0615V21.7451ZM78.8184 45.374H80.6152V52.0225H52.1572V45.374H72.4844V43.0381C72.4844 41.8402 72.0876 40.8145 71.2939 39.9609C70.5003 39.1074 69.5345 38.6807 68.3965 38.6807H62.1748C61.3063 38.6807 60.5576 38.3587 59.9287 37.7148C59.3148 37.056 59.0078 36.2699 59.0078 35.3564V32.0098H68.3965C71.2715 32.0098 73.7272 33.0879 75.7637 35.2441C77.8001 37.4004 78.8184 39.9984 78.8184 43.0381V45.374ZM63.5 53.8867C64.0391 53.8867 64.5407 53.9915 65.0049 54.2012C65.4691 54.4108 65.8734 54.6878 66.2178 55.0322C66.5771 55.3916 66.8542 55.8109 67.0488 56.29C67.2585 56.7692 67.3633 57.2783 67.3633 57.8174C67.3633 58.3564 67.2585 58.8581 67.0488 59.3223C66.8542 59.8014 66.5771 60.2132 66.2178 60.5576C65.8734 60.917 65.4691 61.194 65.0049 61.3887C64.5407 61.5983 64.0391 61.7031 63.5 61.7031C62.9609 61.7031 62.4518 61.5983 61.9727 61.3887C61.5085 61.194 61.0967 60.917 60.7373 60.5576C60.3929 60.2132 60.1159 59.8014 59.9062 59.3223C59.7116 58.8581 59.6143 58.3564 59.6143 57.8174C59.6143 57.2783 59.7116 56.7692 59.9062 56.29C60.1159 55.8109 60.3929 55.3916 60.7373 55.0322C61.0967 54.6878 61.5085 54.4108 61.9727 54.2012C62.4518 53.9915 62.9609 53.8867 63.5 53.8867ZM98.4941 45.374V43.0381C98.4941 41.8402 98.0973 40.8145 97.3037 39.9609C96.5101 39.1074 95.5443 38.6807 94.4062 38.6807H88.1846C87.3161 38.6807 86.5674 38.3587 85.9385 37.7148C85.3245 37.056 85.0176 36.2699 85.0176 35.3564V32.0098H94.4062C97.2812 32.0098 99.737 33.0879 101.773 35.2441C103.81 37.4004 104.828 39.9984 104.828 43.0381V52.0225H78.167V45.374H98.4941Z" fill="white"/>
<path d="M135.353 41.4434C135.427 41.9674 135.577 42.4466 135.802 42.8809C136.041 43.375 136.356 43.8092 136.745 44.1836C137.134 44.543 137.584 44.8275 138.093 45.0371C138.602 45.2467 139.148 45.3516 139.732 45.3516H139.935V52H139.732C138.235 52 136.827 51.723 135.51 51.1689C134.192 50.5999 133.032 49.8213 132.028 48.833C132.013 48.848 131.998 48.863 131.983 48.8779C131.01 49.8063 129.887 50.5475 128.614 51.1016C127.267 51.6855 125.829 51.9775 124.302 51.9775H112.195C112.944 49.1624 113.483 47.4854 113.812 46.9463C114.561 45.8682 115.527 45.3291 116.71 45.3291H124.302C124.901 45.3291 125.47 45.2168 126.009 44.9922C126.548 44.7526 127.02 44.4382 127.424 44.0488C127.828 43.6445 128.15 43.1729 128.39 42.6338C128.599 42.1995 128.719 41.7428 128.749 41.2637L128.727 40.5898C128.697 40.1107 128.577 39.6465 128.367 39.1973C128.128 38.6732 127.806 38.2165 127.401 37.8271C126.997 37.4229 126.525 37.1084 125.986 36.8838C125.447 36.6442 124.878 36.5244 124.279 36.5244H115.789C114.921 36.5244 114.172 36.2025 113.543 35.5586C112.929 34.8997 112.622 34.1136 112.622 33.2002V29.876H124.279C125.807 29.876 127.244 30.168 128.592 30.752C129.939 31.3359 131.115 32.1296 132.118 33.1328C133.121 34.1361 133.915 35.304 134.499 36.6367C135.038 37.8796 135.323 39.2048 135.353 40.6123V41.4434ZM148.537 45.3291H157.454C158.278 45.3291 159.221 45.0371 160.284 44.4531C161.362 43.8691 162.044 43.0007 162.328 41.8477C162.628 40.6797 162.396 39.5492 161.632 38.4561C160.868 37.348 159.865 36.6592 158.622 36.3896C157.379 36.1051 156.136 36.3223 154.894 37.041L148.537 40.6348V45.3291ZM141.911 45.3516V34.166C142.001 33.7617 142.166 33.3574 142.405 32.9531C143.154 31.875 144.112 31.3359 145.28 31.3359H148.537V32.9307L152.423 30.3252C155.103 28.6481 157.858 28.154 160.688 28.8428C163.519 29.5316 165.757 31.2835 167.404 34.0986C169.066 36.9137 169.568 39.8411 168.909 42.8809C168.265 45.9206 166.828 48.2041 164.597 49.7314C162.366 51.2588 160.224 52.015 158.173 52H139.53V45.3516H141.911ZM177.938 58.2891C179.765 58.2891 181.308 57.75 182.565 56.6719C183.838 55.5938 184.475 53.8867 184.475 51.5508V38.8154C184.475 37.6774 185.014 36.7415 186.092 36.0078C186.616 35.6934 187.155 35.5361 187.709 35.5361H191.078V52.1572C191.078 56.0205 189.82 59.1501 187.305 61.5459C184.804 63.792 181.689 64.915 177.961 64.915H174.479C173.312 64.915 172.361 64.376 171.627 63.2979C171.298 62.7588 171.133 62.2122 171.133 61.6582V58.2891H177.938Z" fill="#2D3436"/>
</svg>
